<svg width="348" height="23" viewBox="0 0 348 23" fill="none" xmlns="http://www.w3.org/2000/svg">
<path d="M5.264 5.072H0.224V0.879999H15.072V5.072H10.048V22H5.264V5.072ZM21.3365 0.879999H26.1205V22H21.3365V0.879999ZM37.7688 5.264L38.1208 5.328V22H33.3368V0.879999H39.8648L48.4248 17.52L48.0728 17.584V0.879999H52.8568V22H46.2968L37.7688 5.264ZM65.3738 14.4L58.0938 0.879999H63.9018L67.7578 8.928L71.6298 0.879999H77.4058L70.1578 14.4V22H65.3738V14.4ZM94.4325 22H89.0245L81.5045 0.879999H86.8965L91.7285 15.904L96.5605 0.879999H101.953L94.4325 22ZM107.834 0.879999H121.322V5.072H112.602V9.376H121.242V13.44H112.602V17.808H121.322V22H107.834V0.879999ZM128.352 0.879999H136.96C138.187 0.879999 139.28 1.136 140.24 1.648C141.2 2.16 141.957 2.90133 142.512 3.872C143.077 4.832 143.36 5.97867 143.36 7.312C143.36 8.64533 143.12 9.73867 142.64 10.592C142.171 11.4347 141.605 12.0693 140.944 12.496C140.283 12.912 139.669 13.1627 139.104 13.248L144.24 22H138.864L134.288 13.616H133.136V22H128.352V0.879999ZM133.136 10.304H135.248C136.101 10.304 136.848 10.096 137.488 9.68C138.128 9.264 138.448 8.528 138.448 7.472C138.448 6.416 138.133 5.68533 137.504 5.28C136.875 4.864 136.133 4.656 135.28 4.656H133.136V10.304ZM158.601 0.495998C159.913 0.495998 161.06 0.639999 162.042 0.927999C163.023 1.216 163.812 1.52 164.41 1.84C165.007 2.16 165.37 2.37333 165.498 2.48L163.193 6.336C163.023 6.208 162.73 6.02133 162.314 5.776C161.908 5.53067 161.423 5.312 160.858 5.12C160.303 4.928 159.722 4.832 159.113 4.832C158.292 4.832 157.626 4.98133 157.113 5.28C156.612 5.568 156.361 6 156.361 6.576C156.361 6.97067 156.495 7.328 156.761 7.648C157.039 7.95733 157.455 8.256 158.009 8.544C158.575 8.82133 159.289 9.12533 160.153 9.456C160.943 9.744 161.684 10.0853 162.377 10.48C163.071 10.8747 163.679 11.344 164.201 11.888C164.735 12.4213 165.156 13.04 165.465 13.744C165.775 14.448 165.93 15.248 165.93 16.144C165.93 17.2107 165.711 18.1387 165.274 18.928C164.836 19.7067 164.239 20.352 163.481 20.864C162.735 21.376 161.881 21.7547 160.922 22C159.972 22.256 158.985 22.384 157.962 22.384C156.511 22.384 155.209 22.2187 154.057 21.888C152.916 21.5573 151.993 21.2 151.289 20.816C150.585 20.432 150.164 20.176 150.025 20.048L152.409 16.032C152.537 16.128 152.783 16.2827 153.145 16.496C153.519 16.7093 153.972 16.9333 154.505 17.168C155.039 17.392 155.604 17.584 156.201 17.744C156.809 17.904 157.407 17.984 157.993 17.984C158.975 17.984 159.711 17.7973 160.201 17.424C160.692 17.04 160.938 16.5387 160.938 15.92C160.938 15.4613 160.783 15.0507 160.474 14.688C160.164 14.3253 159.7 13.984 159.082 13.664C158.463 13.3333 157.689 12.9867 156.761 12.624C155.833 12.2507 154.964 11.7973 154.153 11.264C153.353 10.7307 152.703 10.064 152.201 9.264C151.7 8.464 151.449 7.472 151.449 6.288C151.449 5.104 151.78 4.08 152.441 3.216C153.113 2.34133 153.993 1.66933 155.081 1.2C156.18 0.730665 157.353 0.495998 158.601 0.495998ZM172.332 0.879999H185.82V5.072H177.1V9.376H185.74V13.44H177.1V17.808H185.82V22H172.332V0.879999ZM212.63 0.495998C213.942 0.495998 215.089 0.639999 216.07 0.927999C217.052 1.216 217.841 1.52 218.438 1.84C219.036 2.16 219.398 2.37333 219.526 2.48L217.222 6.336C217.052 6.208 216.758 6.02133 216.342 5.776C215.937 5.53067 215.452 5.312 214.886 5.12C214.332 4.928 213.75 4.832 213.142 4.832C212.321 4.832 211.654 4.98133 211.142 5.28C210.641 5.568 210.39 6 210.39 6.576C210.39 6.97067 210.524 7.328 210.79 7.648C211.068 7.95733 211.484 8.256 212.038 8.544C212.604 8.82133 213.318 9.12533 214.182 9.456C214.972 9.744 215.713 10.0853 216.406 10.48C217.1 10.8747 217.708 11.344 218.23 11.888C218.764 12.4213 219.185 13.04 219.494 13.744C219.804 14.448 219.958 15.248 219.958 16.144C219.958 17.2107 219.74 18.1387 219.302 18.928C218.865 19.7067 218.268 20.352 217.51 20.864C216.764 21.376 215.91 21.7547 214.95 22C214.001 22.256 213.014 22.384 211.99 22.384C210.54 22.384 209.238 22.2187 208.086 21.888C206.945 21.5573 206.022 21.2 205.318 20.816C204.614 20.432 204.193 20.176 204.054 20.048L206.438 16.032C206.566 16.128 206.812 16.2827 207.174 16.496C207.548 16.7093 208.001 16.9333 208.534 17.168C209.068 17.392 209.633 17.584 210.23 17.744C210.838 17.904 211.436 17.984 212.022 17.984C213.004 17.984 213.74 17.7973 214.23 17.424C214.721 17.04 214.966 16.5387 214.966 15.92C214.966 15.4613 214.812 15.0507 214.502 14.688C214.193 14.3253 213.729 13.984 213.11 13.664C212.492 13.3333 211.718 12.9867 210.79 12.624C209.862 12.2507 208.993 11.7973 208.182 11.264C207.382 10.7307 206.732 10.064 206.23 9.264C205.729 8.464 205.478 7.472 205.478 6.288C205.478 5.104 205.809 4.08 206.47 3.216C207.142 2.34133 208.022 1.66933 209.11 1.2C210.209 0.730665 211.382 0.495998 212.63 0.495998ZM230.297 5.072H225.257V0.879999H240.105V5.072H235.081V22H230.297V5.072ZM258.401 0.879999H263.185V13.856C263.185 15.5947 262.844 17.104 262.161 18.384C261.478 19.6533 260.502 20.64 259.233 21.344C257.964 22.0373 256.449 22.384 254.689 22.384C252.918 22.384 251.393 22.0373 250.113 21.344C248.833 20.64 247.852 19.6533 247.169 18.384C246.497 17.104 246.161 15.5947 246.161 13.856V0.879999H250.929V13.6C250.929 14.56 251.078 15.3707 251.377 16.032C251.686 16.6933 252.124 17.1947 252.689 17.536C253.254 17.8667 253.921 18.032 254.689 18.032C255.446 18.032 256.102 17.8667 256.657 17.536C257.212 17.1947 257.638 16.6933 257.937 16.032C258.246 15.3707 258.401 14.56 258.401 13.6V0.879999ZM270.136 0.879999H276.488C278.739 0.879999 280.6 1.33333 282.072 2.24C283.555 3.136 284.664 4.37867 285.4 5.968C286.136 7.55733 286.504 9.376 286.504 11.424C286.504 13.4827 286.136 15.3067 285.4 16.896C284.664 18.4853 283.555 19.7333 282.072 20.64C280.6 21.5467 278.739 22 276.488 22H270.136V0.879999ZM274.904 5.12V17.76H276.056C277.261 17.76 278.259 17.488 279.048 16.944C279.837 16.3893 280.429 15.6373 280.824 14.688C281.229 13.728 281.432 12.6507 281.432 11.456C281.432 10.2507 281.235 9.17333 280.84 8.224C280.456 7.264 279.864 6.50667 279.064 5.952C278.264 5.39733 277.261 5.12 276.056 5.12H274.904ZM293.003 0.879999H297.787V22H293.003V0.879999ZM309.307 11.424C309.307 12.6293 309.552 13.7227 310.043 14.704C310.544 15.6747 311.232 16.448 312.107 17.024C312.992 17.6 314.016 17.888 315.179 17.888C316.342 17.888 317.36 17.6 318.235 17.024C319.12 16.448 319.808 15.6747 320.299 14.704C320.8 13.7227 321.051 12.6293 321.051 11.424C321.051 10.2187 320.8 9.13067 320.299 8.16C319.808 7.18933 319.12 6.416 318.235 5.84C317.36 5.25333 316.342 4.96 315.179 4.96C314.016 4.96 312.992 5.25333 312.107 5.84C311.232 6.416 310.544 7.18933 310.043 8.16C309.552 9.13067 309.307 10.2187 309.307 11.424ZM304.331 11.424C304.331 9.888 304.603 8.45867 305.147 7.136C305.691 5.80267 306.454 4.64 307.435 3.648C308.416 2.656 309.568 1.88267 310.891 1.328C312.214 0.773332 313.643 0.495998 315.179 0.495998C316.736 0.495998 318.171 0.773332 319.483 1.328C320.806 1.88267 321.952 2.656 322.923 3.648C323.904 4.64 324.662 5.80267 325.195 7.136C325.739 8.45867 326.011 9.888 326.011 11.424C326.011 12.9707 325.75 14.4107 325.227 15.744C324.704 17.0667 323.958 18.2293 322.987 19.232C322.016 20.224 320.87 20.9973 319.547 21.552C318.224 22.1067 316.768 22.384 315.179 22.384C313.558 22.384 312.08 22.1067 310.747 21.552C309.424 20.9973 308.283 20.224 307.323 19.232C306.363 18.2293 305.622 17.0667 305.099 15.744C304.587 14.4107 304.331 12.9707 304.331 11.424ZM339.969 0.495998C341.281 0.495998 342.428 0.639999 343.409 0.927999C344.39 1.216 345.18 1.52 345.777 1.84C346.374 2.16 346.737 2.37333 346.865 2.48L344.561 6.336C344.39 6.208 344.097 6.02133 343.681 5.776C343.276 5.53067 342.79 5.312 342.225 5.12C341.67 4.928 341.089 4.832 340.481 4.832C339.66 4.832 338.993 4.98133 338.481 5.28C337.98 5.568 337.729 6 337.729 6.576C337.729 6.97067 337.862 7.328 338.129 7.648C338.406 7.95733 338.822 8.256 339.377 8.544C339.942 8.82133 340.657 9.12533 341.521 9.456C342.31 9.744 343.052 10.0853 343.745 10.48C344.438 10.8747 345.046 11.344 345.569 11.888C346.102 12.4213 346.524 13.04 346.833 13.744C347.142 14.448 347.297 15.248 347.297 16.144C347.297 17.2107 347.078 18.1387 346.641 18.928C346.204 19.7067 345.606 20.352 344.849 20.864C344.102 21.376 343.249 21.7547 342.289 22C341.34 22.256 340.353 22.384 339.329 22.384C337.878 22.384 336.577 22.2187 335.425 21.888C334.284 21.5573 333.361 21.2 332.657 20.816C331.953 20.432 331.532 20.176 331.393 20.048L333.777 16.032C333.905 16.128 334.15 16.2827 334.513 16.496C334.886 16.7093 335.34 16.9333 335.873 17.168C336.406 17.392 336.972 17.584 337.569 17.744C338.177 17.904 338.774 17.984 339.361 17.984C340.342 17.984 341.078 17.7973 341.569 17.424C342.06 17.04 342.305 16.5387 342.305 15.92C342.305 15.4613 342.15 15.0507 341.841 14.688C341.532 14.3253 341.068 13.984 340.449 13.664C339.83 13.3333 339.057 12.9867 338.129 12.624C337.201 12.2507 336.332 11.7973 335.521 11.264C334.721 10.7307 334.07 10.064 333.569 9.264C333.068 8.464 332.817 7.472 332.817 6.288C332.817 5.104 333.148 4.08 333.809 3.216C334.481 2.34133 335.361 1.66933 336.449 1.2C337.548 0.730665 338.721 0.495998 339.969 0.495998Z" fill="white"/>
</svg>
