<svg width="21" height="19" viewBox="0 0 21 19" fill="none" xmlns="http://www.w3.org/2000/svg">
<path fill-rule="evenodd" clip-rule="evenodd" d="M4.7876 11.0196C4.83137 11.0344 4.87555 11.0448 4.91969 11.0512C4.96783 11.1644 5.03002 11.3107 5.10258 11.4818C5.27966 11.8994 5.51825 12.4643 5.76452 13.0535C6.26677 14.2552 6.77338 15.4939 6.88527 15.8485C7.02378 16.2868 7.17019 16.5848 7.33002 16.7883C7.41267 16.8935 7.50825 16.9853 7.62009 17.0549C7.67639 17.0899 7.73587 17.1186 7.79795 17.14C7.80068 17.141 7.80341 17.1419 7.80614 17.1428C8.12616 17.2636 8.41792 17.2133 8.60059 17.1518C8.69833 17.1188 8.77741 17.0791 8.83346 17.0469C8.86204 17.0304 8.88618 17.0151 8.90544 17.0021L8.90998 16.9991L11.7362 15.2366L15.0007 17.7394C15.0489 17.7763 15.1014 17.8073 15.1571 17.8316C15.5493 18.0027 15.929 18.0624 16.2863 18.0136C16.6429 17.9649 16.9261 17.8151 17.1369 17.6464C17.3433 17.4813 17.4832 17.2963 17.5704 17.1589C17.6149 17.0887 17.6483 17.0266 17.6718 16.9791C17.6837 16.9552 17.6932 16.9346 17.7005 16.9181L17.71 16.8963L17.7135 16.8877L17.715 16.8841L17.7157 16.8824L17.7163 16.8808C17.7335 16.8379 17.7466 16.7935 17.7556 16.7482L20.7359 1.72274C20.7454 1.67469 20.7502 1.62581 20.7502 1.57682C20.7502 1.13681 20.5844 0.718409 20.1946 0.464515C19.8614 0.247518 19.4902 0.238177 19.2556 0.255982C19.0026 0.275189 18.7689 0.337656 18.612 0.387572C18.5304 0.41355 18.462 0.438614 18.4127 0.457735C18.3879 0.467345 18.3675 0.47559 18.3524 0.481878L18.341 0.486665L1.62731 7.04321L1.62515 7.04399C1.6145 7.04786 1.60082 7.05297 1.58457 7.05929C1.55221 7.07189 1.50884 7.08965 1.45819 7.1126C1.35941 7.15738 1.22083 7.22734 1.07862 7.32473C0.851432 7.48031 0.328942 7.90641 0.416923 8.60971C0.487112 9.17078 0.871492 9.51537 1.10568 9.68107C1.23427 9.77206 1.35644 9.83713 1.44541 9.87949C1.48668 9.89913 1.57238 9.93395 1.60956 9.94905L1.61895 9.95287L4.7876 11.0196ZM18.926 1.86786L18.9236 1.86888C18.9153 1.8725 18.9069 1.87596 18.8985 1.87928L2.16446 8.44378C2.15572 8.44721 2.14692 8.45047 2.13806 8.45357L2.12875 8.4571C2.11804 8.46127 2.10002 8.46858 2.0774 8.47884C2.06457 8.48465 2.05118 8.49099 2.03753 8.4978C2.05629 8.50836 2.07423 8.51754 2.09018 8.52513C2.10549 8.53242 2.11717 8.5374 2.12356 8.54003L5.26619 9.59802C5.32371 9.61738 5.37733 9.64304 5.42655 9.67397L15.8033 3.59948L15.813 3.59374C15.8206 3.58927 15.8305 3.58353 15.8424 3.5768C15.866 3.56345 15.8985 3.54568 15.9371 3.52603C16.0091 3.48938 16.1243 3.43497 16.2541 3.39485C16.3445 3.36692 16.611 3.28823 16.8991 3.38064C17.0769 3.43767 17.261 3.56028 17.3807 3.76798C17.4402 3.87117 17.4719 3.97483 17.4872 4.06972C17.528 4.2192 17.5216 4.36681 17.4897 4.49424C17.4209 4.76875 17.228 4.98287 17.0525 5.14665C16.9022 5.28706 14.9568 7.16292 13.0377 9.01468C12.0806 9.93813 11.1333 10.8525 10.4253 11.5359L9.96023 11.9849L15.8322 16.4867C15.9668 16.5349 16.0464 16.5325 16.0833 16.5274C16.1272 16.5214 16.1631 16.5045 16.1998 16.4752C16.2408 16.4424 16.2767 16.398 16.3035 16.3557L16.3046 16.354L19.1951 1.78102C19.1522 1.79133 19.1088 1.80361 19.067 1.81691C19.0196 1.83198 18.9806 1.84634 18.9547 1.85637C18.9419 1.86134 18.9327 1.86511 18.9277 1.86719L18.926 1.86786ZM10.4647 14.2618L9.29321 13.3636L9.00934 15.1693L10.4647 14.2618ZM8.21852 11.5814L9.3835 10.4567C10.0916 9.77321 11.039 8.85879 11.9961 7.93524L12.9686 6.997L6.44859 10.8138L6.48357 10.8963C6.66127 11.3154 6.90093 11.8827 7.14851 12.4751C7.33364 12.918 7.52723 13.3844 7.70356 13.8162L7.98659 12.0158C8.01388 11.8422 8.09868 11.692 8.21852 11.5814Z" fill="#6104AB"/>
</svg>
